<svg xmlns="http://www.w3.org/2000/svg" viewBox="0 0 100 100" width="100" height="100">
  <rect width="100" height="100" rx="22" fill="#0F1115"/>
  <!-- Gear silhouette -->
  <path d="M50 32C40.06 32 32 40.06 32 50C32 59.94 40.06 68 50 68C59.94 68 68 59.94 68 50C68 40.06 59.94 32 50 32ZM50 59C45.03 59 41 54.97 41 50C41 45.03 45.03 41 50 41C54.97 41 59 45.03 59 50C59 54.97 54.97 59 50 59Z" fill="#0066FF"/>
  <!-- Construction silhouette inside gear -->
  <path d="M44 46H56V62H44V46ZM46 48V50H49V48H46ZM51 48V50H54V48H51ZM46 52V54H49V52H46ZM51 52V54H54V52H51ZM46 56V58H49V56H46ZM51 56V58H54V56H51Z" fill="#FFB000"/>
</svg>
